<?xml version="1.0" standalone="no"?><!DOCTYPE svg PUBLIC "-//W3C//DTD SVG 1.1//EN" "http://www.w3.org/Graphics/SVG/1.1/DTD/svg11.dtd"><svg t="1711031898853" class="icon" viewBox="0 0 1024 1024" version="1.1" xmlns="http://www.w3.org/2000/svg" p-id="2206" xmlns:xlink="http://www.w3.org/1999/xlink" width="200" height="200"><path d="M950.4 361.6c8-20.8 0-43.2-19.2-54.4-9.6-4.8-20.8-6.4-32-3.2s-19.2 11.2-24 22.4c-56 132.8-208 228.8-361.6 228.8-155.2 0-307.2-97.6-363.2-232-4.8-11.2-12.8-19.2-24-24-9.6-4.8-20.8-3.2-32 0-20.8 9.6-30.4 35.2-20.8 56 25.6 60.8 67.2 118.4 123.2 164.8l-67.2 70.4c-14.4 16-14.4 40 0 57.6 8 8 17.6 14.4 28.8 14.4s22.4-3.2 30.4-11.2l76.8-81.6c35.2 20.8 73.6 38.4 113.6 49.6l-28.8 83.2c-8 22.4 3.2 46.4 24 54.4 4.8 1.6 9.6 3.2 14.4 3.2 6.4 0 11.2-1.6 17.6-3.2 9.6-4.8 17.6-12.8 22.4-24l33.6-96c41.6 4.8 81.6 3.2 123.2-3.2l32 94.4c3.2 11.2 11.2 19.2 22.4 24 9.6 4.8 20.8 4.8 32 1.6 20.8-8 32-32 24-54.4l-28.8-84.8c30.4-9.6 59.2-22.4 86.4-38.4l62.4 65.6c14.4 16 43.2 16 57.6 0 16-16 16-43.2 0-60.8l-51.2-54.4c56-43.2 100.8-100.8 128-164.8z" p-id="2207" fill="#8a8a8a"></path></svg>