<?xml version="1.0" standalone="no"?><!DOCTYPE svg PUBLIC "-//W3C//DTD SVG 1.1//EN" "http://www.w3.org/Graphics/SVG/1.1/DTD/svg11.dtd"><svg t="1711939415232" class="icon" viewBox="0 0 1024 1024" version="1.1" xmlns="http://www.w3.org/2000/svg" p-id="7345" xmlns:xlink="http://www.w3.org/1999/xlink" width="80" height="80"><path d="M281.19 493.037l-80.452 80.453c-14.811 14.811-14.811 38.824 0 53.635 14.81 14.81100001 38.824 14.811 53.635 0l107.271-107.27c14.81-14.81100001 14.81-38.825 0-53.636l-107.27-107.27c-14.812-14.811-38.825-14.81100001-53.636 0-14.81100001 14.81-14.811 38.824 0 53.635l80.453 80.453zM872.296 796.444l-720.592 0q-37.926 0-37.926-37.926t37.926-37.92599999L872.296 720.59200001q37.926 0 37.926 37.92599999t-37.926 37.926zM872.296 530.963l-379.259 0q-37.926 0-37.926-37.926t37.926-37.926L872.296 455.111q37.926 0 37.926 37.926t-37.926 37.926zM872.296 265.48099999l-720.592 0q-37.926 0-37.926-37.92599999t37.926-37.926L872.296 189.629q37.926 0 37.926 37.926t-37.926 37.92599999z" fill="#2c2c2c" p-id="7346"></path></svg>