<?xml version="1.0" standalone="no"?><!DOCTYPE svg PUBLIC "-//W3C//DTD SVG 1.1//EN" "http://www.w3.org/Graphics/SVG/1.1/DTD/svg11.dtd"><svg t="1711939081556" class="icon" viewBox="0 0 1024 1024" version="1.1" xmlns="http://www.w3.org/2000/svg" p-id="7139" xmlns:xlink="http://www.w3.org/1999/xlink" width="80" height="80"><path d="M742.81 530.963l80.452-80.453c14.811-14.811 14.811-38.824 0-53.635-14.81-14.811-38.824-14.811-53.635 0l-107.271 107.27c-14.81 14.811-14.81 38.825 0 53.636l107.27 107.27c14.812 14.811 38.825 14.811 53.636 0 14.811-14.81 14.811-38.824 0-53.635l-80.453-80.453zM151.704 227.556h720.592q37.926 0 37.926 37.926t-37.926 37.926H151.704q-37.926 0-37.926-37.926t37.926-37.926zM151.704 493.037h379.259q37.926 0 37.926 37.926t-37.926 37.926H151.704q-37.926 0-37.926-37.926t37.926-37.926zM151.704 758.519h720.592q37.926 0 37.926 37.926t-37.926 37.926H151.704q-37.926 0-37.926-37.926t37.926-37.926z" fill="#2c2c2c" p-id="7140"></path></svg>