<?xml version="1.0" standalone="no"?><!DOCTYPE svg PUBLIC "-//W3C//DTD SVG 1.1//EN" "http://www.w3.org/Graphics/SVG/1.1/DTD/svg11.dtd"><svg t="1711033634677" class="icon" viewBox="0 0 1024 1024" version="1.1" xmlns="http://www.w3.org/2000/svg" p-id="2974" xmlns:xlink="http://www.w3.org/1999/xlink" width="200" height="200"><path d="M824.888889 426.666667H199.111111v-113.777778c0-82.488889 31.288889-162.133333 91.022222-221.866667C349.866667 31.288889 429.511111 0 512 0s162.133333 31.288889 221.866667 91.022222C793.6 150.755556 824.888889 230.4 824.888889 312.888889v113.777778z m-512-113.777778h398.222222c0-54.044444-19.911111-102.4-56.888889-139.377778C614.4 133.688889 566.044444 113.777778 512 113.777778s-102.4 19.911111-139.377778 59.733333C332.8 210.488889 312.888889 258.844444 312.888889 312.888889z" fill="#CCCCCC" p-id="2975"></path><path d="M142.222222 284.444444h739.555556c79.644444 0 142.222222 62.577778 142.222222 142.222223v455.111111c0 79.644444-62.577778 142.222222-142.222222 142.222222H142.222222c-79.644444 0-142.222222-62.577778-142.222222-142.222222V426.666667c0-79.644444 62.577778-142.222222 142.222222-142.222223z" fill="#AFAFAE" p-id="2976"></path><path d="M512 597.333333m-113.777778 0a113.777778 113.777778 0 1 0 227.555556 0 113.777778 113.777778 0 1 0-227.555556 0Z" fill="#FFFFFF" p-id="2977"></path><path d="M512 654.222222c31.288889 0 56.888889 25.6 56.888889 56.888889v85.333333c0 31.288889-25.6 56.888889-56.888889 56.888889s-56.888889-25.6-56.888889-56.888889v-85.333333c0-31.288889 25.6-56.888889 56.888889-56.888889z" fill="#FFFFFF" p-id="2978"></path></svg>