<?xml version="1.0" standalone="no"?><!DOCTYPE svg PUBLIC "-//W3C//DTD SVG 1.1//EN" "http://www.w3.org/Graphics/SVG/1.1/DTD/svg11.dtd"><svg t="1711725570498" class="icon" viewBox="0 0 1024 1024" version="1.1" xmlns="http://www.w3.org/2000/svg" p-id="16097" xmlns:xlink="http://www.w3.org/1999/xlink" width="80" height="80"><path d="M571.36 958.528H68.576a463.296 463.296 0 0 1 461.44-431.04 263.552 263.552 0 1 0-144.384-43.392A527.616 527.616 0 0 0 2.944 990.528a32 32 0 0 0 32 32H571.36a32 32 0 0 0 0-64zM330.976 264.48a199.04 199.04 0 1 1 199.04 199.04 199.264 199.264 0 0 1-199.04-199.04z" p-id="16098" fill="#dbdbdb"></path><path d="M733.056 563.584a32 32 0 0 0 32 32h224a32 32 0 0 0 0-64h-224a32 32 0 0 0-32 32z m256 181.472h-384a32 32 0 0 0 0 64h384a32 32 0 0 0 0-64z m0 213.472H764.864a32 32 0 0 0 0 64h224.192a32 32 0 0 0 0-64z" p-id="16099" fill="#dbdbdb"></path></svg>